<svg data-name="Camada 11" xmlns="http://www.w3.org/2000/svg" viewBox="0 0 997.21 997.21"><path d="M998.3 499.88C998.3 224.5 775.07 1.27 499.69 1.27S1.09 224.5 1.09 499.88s223.23 498.6 498.6 498.6S998.3 775.25 998.3 499.88Z" transform="translate(-1.09 -1.27)" style="fill:#38a0ac"/><path d="M628.92 583.32c-20.35 22.38-48.84 33.58-62.07 33.58-15.26 0-23.4-9.16-25.44-23.41-1-5.08 0-11.19 1-16.28 5.09-31.54 16.28-51.89 16.28-57 0-2-1-3.05-2-3.05-10.18 0-44.78 35.61-49.86 59l-4.07 19.34c-3.06 13.23-15.27 21.37-24.42 21.37-4.08 0-7.13-2-8.15-7.13v-6.1l2-10.18c-18.32 14.25-38.67 23.41-47.83 23.41-13.22 0-20.35-7.13-22.38-17.3-8.14 11.19-19.34 17.3-31.55 17.3-15.26 0-29.51-10.18-36.63-25.44A186.35 186.35 0 0 1 297.2 623c-21.37 13.23-44.77 24.42-72.25 24.42-25.44 0-47.82-13.22-59-24.42-18.31-16.28-27.47-41.72-30.52-64.1C126.25 487.67 170 393 238.18 352.33c15.26-9.16 32.56-14.25 48.84-14.25 32.56 0 57 23.41 60 50.88 3.05 25.44-7.12 46.81-34.6 60-14.24 7.12-21.37 7.12-23.4 3.05-1-2-1-6.1 2-8.14 26.46-21.37 26.46-39.68 23.41-65.12-2-16.28-12.21-26.46-24.42-26.46-52.92 0-126.18 115-116 198.43 4.13 32.6 24.48 70.28 65.19 70.28 13.23 0 28.49-4.07 40.7-10.18 22.39-11.19 35.61-20.35 47.83-35.61-3.06-38.67 30.52-87.51 79.37-87.51 21.36 0 38.66 8.14 40.7 25.44 3.05 21.36-15.27 25.43-22.39 25.43-6.1 0-15.26-2-16.28-7.12-1-6.1 13.23-3 11.19-16.28C419.31 507 410.15 504 402 504c-30.53 0-47.83 42.74-44.78 69.19 1 12.21 8.15 24.42 18.32 24.42 9.16 0 22.39-13.23 26.46-31.54 3.05-13.23 15.26-21.37 24.42-21.37 5.09 0 8.14 2 8.14 7.12v6.11c-1 5.09-5.09 24.42-5.09 27.47s2 8.14 8.14 8.14c5.09 0 21.37-9.16 37.65-23.4 5.09-25.44 11.2-57 11.2-59 2-10.18 6.1-21.37 26.45-21.37 4.07 0 7.13 2 8.14 7.12V503L516 530.4c18.32-24.42 46.81-42.73 64.11-42.73 7.12 0 13.23 4.07 14.25 11.19 1 4.07-1 11.19-3.06 19.33-6.1 16.28-13.22 41.72-17.29 63.09-1 5.09 1 11.2 9.15 11.2 7.13 0 28.5-8.15 45.79-31.55v-10.17c0-18.32 1-32.57 5.09-43.76 3.06-11.19 17.3-21.37 26.46-21.37 5.09 0 8.14 3.05 8.14 8.14a12.9 12.9 0 0 1-1 6.11c-6.1 19.33-10.17 36.63-10.17 53.93a168.22 168.22 0 0 0 4.07 33.58c0 2 1 3.05 3 3.05 3.05 0 23.4-19.33 37.65-43.75-13.19-8.15-20.35-23.41-20.35-41.69 0-30.52 18.31-46.8 36.63-46.8 14.25 0 26.46 10.17 26.46 30.52 0 13.23-5.09 27.48-12.21 41.72h4.07a31 31 0 0 0 24.42-11.19c2-2 4.07-4.07 6.1-5.09 14.25-17.3 35.62-29.51 60-29.51 21.37 0 38.67 8.14 40.7 25.44 3.06 21.37-16.28 26.46-22.38 26.46s-16.29-2-16.29-7.12c-1-5.09 13.23-3.06 12.22-16.28-1-8.15-10.18-12.22-18.32-12.22-28.49 0-47.83 37.65-44.77 69.2 1 12.21 7.12 24.42 18.31 24.42 9.16 0 22.39-13.23 27.48-31.54 3.05-12.21 15.26-21.37 24.42-21.37 4.07 0 8.14 2 8.14 7.12 0 3-1 8.14-5.09 28.49-2 8.14-2 16.28-2 21.37 2 12.21 7.12 20.35 12.21 25.44 2 2 3 4.07 3 5.09a5.87 5.87 0 0 1-6.11 6.1c-1 0-3 0-4.07-1-22.38-9.16-31.54-24.43-33.58-37.65-8.14 11.19-19.33 16.28-31.54 16.28-19.33 0-38.67-17.3-41.72-39.69a68.37 68.37 0 0 1 3-28.49c-8.14 5.09-16.28 8.14-24.42 8.14h-7.12c-19.34 27.47-39.69 46.81-55 56-6.11 3-12.21 5.08-16.28 5.08-3 0-7.12-1-9.16-4.07-6.11-4.07-9.16-14.24-10.18-26.45Zm69.2-91.58c0 12.21 6.1 24.42 13.23 32.56 3-8.14 5.09-16.28 5.09-24.42 0-15.27-6.11-22.39-10.18-22.39-6.11 0-8.14 8.14-8.14 14.25Z" transform="translate(-1.09 -1.27)" style="fill:#fff"/></svg>