<svg id="Camada_10" data-name="Camada 10" xmlns="http://www.w3.org/2000/svg" viewBox="0 0 1000 1000"><defs><style>.cls-1{fill:#717172}</style></defs><path class="cls-1" d="M502.5 475.32a46.22 46.22 0 0 1 11.38-28.77v-10h-8.72c-17.64 0-32.58 6.76-41.26 22h-.51v-20.28h-45.24V562.4h45.25v-50.11c0-21.26 6.23-37.48 31.34-37.48a60 60 0 0 1 7.76.51ZM845.12 474.86a73.67 73.67 0 0 1 17.78-28.58v-9.7h-8.71c-17.65 0-32.56 6.76-41.29 22h-.49v-20.31h-45.27V562.4h45.27v-50.11c0-21.26 6.24-37.48 31.35-37.48l1.36.05ZM594.41 470.21a57.74 57.74 0 0 0-24.43-6c-5.19 0-14.16 2.16-14.16 8.47 0 8.48 14.16 9.68 20.42 10.91 21.09 4.1 37 13.79 37 36.75 0 32.66-30.6 46.25-60.21 46.25a101 101 0 0 1-51.48-14.29L518 521.5c9.19 6.32 24.61 12.59 35.81 12.59 5.72 0 14.17-2.65 14.17-9.43 0-9.68-14.17-10.19-28.37-13.81s-28.31-10.39-28.31-32.65c0-30.5 28.31-44 56.22-44 14.43 0 28.86 2.17 42 8l-15.13 28.06ZM998.61 562.4h-45.25v-13.8h-.5c-8 12.34-23.66 17.89-38.56 17.89-37.83 0-64.41-30.73-64.41-66.3s26.11-66 63.9-66c14.67 0 30.11 5.31 39.56 16.19v-12.11h45.24V562.4Zm-102-61.95c0 15.72 10.72 27.82 29.09 27.82s29.07-12.08 29.07-27.82c0-15.24-10.67-28.06-29.07-28.06s-29.09 12.82-29.09 28.06ZM760 507.73h-95.28c0 17.89 9.73 27.56 28.37 27.56 9.7 0 16.65-3.13 21.64-11.37h43.53c-7.21 29.28-35.82 42.59-64.91 42.59-42.25 0-73.83-23.24-73.83-66.05 0-41.37 29.06-66.29 70.59-66.29 44.26 0 69.91 26.63 69.91 68.95v4.61Zm-42-25.42c-2.24-11.86-13.43-19.6-25.61-19.6-13.19 0-24.09 6.75-26.87 19.6ZM274.21 498.29c0-1.07-.12-2.11-.2-3.17a68.24 68.24 0 0 0-11.28-32 70.3 70.3 0 0 0-9.86-11.82 71.15 71.15 0 0 0-18.65-12.85 79.71 79.71 0 0 0-34.72-7.61c-1.22 0-2.49 0-3.78.07a83.84 83.84 0 0 0-25.18 5 71.81 71.81 0 0 0-20.73 11.33c-1.17.92-2.43 2.06-3.79 3.3l-1 1-1.34 1.43-.63.62-.3.33-1.6 1.68a85.847 85.847 0 0 0-3.36 4 69.12 69.12 0 0 0-5.7 7.88c-1 1.59-2 3.23-2.93 4.86l-13.06 26.17-.69 1.34-1.41 2.94a119 119 0 0 1-9.35 16.33c-7.64 8.37-16.28 12.47-27.38 12.47-.77 0-1.57 0-2.38-.08a36.44 36.44 0 0 1-17.51-4.86c-.54-.32-1.07-.65-1.58-1a29.33 29.33 0 0 1-9.72-10.73 30.35 30.35 0 0 1-3.72-15.57v-.4c.36-8.65 3.66-15.37 10.3-21.18a36.27 36.27 0 0 1 5.07-3.63c.25-.15.5-.28.75-.41a34.77 34.77 0 0 1 17-4l2 .06c10.22.38 18.11 3.58 24.39 9.81l19.73-35.41a77.92 77.92 0 0 0-15.92-8.09c-.22-.08-.45-.17-.68-.24-.71-.25-1.4-.51-2.12-.74a84.63 84.63 0 0 0-19.53-4l-.52-.06c-1-.07-2.08-.19-3.12-.24s-2.26-.07-3.37-.07h-.64a79.66 79.66 0 0 0-34.46 7.61A70.31 70.31 0 0 0 12.77 463a68.34 68.34 0 0 0-11.48 35.27c-.05 1.09-.08 2.17-.08 3.24 0 17.78 6.48 33.43 19.37 46.56 13.45 13.78 31 21.2 52 22.08 1.35.06 2.68.09 4 .09a82.52 82.52 0 0 0 32.75-6.34 72.23 72.23 0 0 0 7.3-3.67c1.34-.76 2.59-1.58 3.84-2.44l.92-.62 1.55-1.06a58.08 58.08 0 0 0 5.31-4.34l.59-.56c1-1 2-1.91 2.94-2.9l3.54-4 1.35-1.69.62-.92.63-.91c5.26-8.83 22.36-40.95 22.36-40.95v-.07l1-2 .85-1.53a114.59 114.59 0 0 1 6.74-11.24l.06-.1a36 36 0 0 1 26.69-14.9c19.12-1.64 35.87 10.92 37.41 28.06s-12.72 32.36-31.84 34a38.41 38.41 0 0 1-11.5-.73h-.09c-14-2.92-23-13.16-27.36-17.73l-18.4 33.83a111.29 111.29 0 0 0 9.63 8.65 74 74 0 0 0 13 7.45 81.3 81.3 0 0 0 32.29 6.7h2.51c21-.88 39.7-8.92 53.19-22.7 12.79-13.09 19.72-28 19.79-45.72v-.52c0-1 0-2-.08-3ZM344.58 566.6a94.36 94.36 0 0 1-26-3.33 51 51 0 0 1-19.89-10.52A47.26 47.26 0 0 1 286 534.42c-3-7.41-4.49-16.36-4.49-26.77v-69.4h43.65v68.84c0 7.81 1.87 13.46 5.59 17a19.85 19.85 0 0 0 14.21 5.3c5.88 0 10.64-1.65 14.32-4.94s5.5-8.77 5.5-16.45v-69.75h43.66v68.48q0 16.18-4.59 27.51a47.65 47.65 0 0 1-12.92 18.52 52.14 52.14 0 0 1-20.19 10.52 96.83 96.83 0 0 1-26.14 3.32Z"/></svg>