<svg id="Camada_7" data-name="Camada 7" xmlns="http://www.w3.org/2000/svg" viewBox="0 0 1000 999.99"><defs><style>.cls-1{fill:#317fc0}</style></defs><path class="cls-1" d="M500 54.06a446 446 0 1 0 315.29 130.62A444.55 444.55 0 0 0 500 54.06M500 0c276.15 0 500 223.88 500 500s-223.89 500-500 500S0 776.06 0 500 223.88 0 500 0"/><path class="cls-1" d="M263.43 496.06c0-29.26-19.31-45.75-46.62-45.75h-16.75v91.51h16.31c25.38 0 47.06-13.88 47.06-45.76m298.11 32.84L438.09 626l-112.86-88.77c-16.23 39.1-55.49 66.37-100.91 66.37h-96.46V388.54h96.46c50.68 0 87.13 32 100.83 66.4l112.94-88.76L480 399.1l-103.46 81.31L396.35 496l103.44-81.32 41.82 32.88-103.43 81.34L458 544.5l103.51-81.3v-74.66h75.1V540.7h74.74v62.93H561.54V528.9Zm244.86 11.84h74.74v62.89H731.3V388.54h75.1v152.2Z"/></svg>