<svg id="Camada_9" data-name="Camada 9" xmlns="http://www.w3.org/2000/svg" viewBox="0 0 1000 1000"><defs><style>.cls-1{fill:#737373;fill-rule:evenodd}</style></defs><path class="cls-1" d="M183.08 445.9A87.14 87.14 0 0 0 158 427.74c-8.92-4.21-20.18-6.22-33.13-6.22a79.38 79.38 0 0 0-29.6 5.54 73.32 73.32 0 0 0-24.21 15.65 72.11 72.11 0 0 0-16.65 24.55 87.39 87.39 0 0 0 0 63.9 71.59 71.59 0 0 0 16.65 24.38 77.08 77.08 0 0 0 24.55 15.8 80.27 80.27 0 0 0 29.93 5.55c11.27 0 21.19-1.51 29.6-4.7a69.56 69.56 0 0 0 21.69-13 59.82 59.82 0 0 0 10.93-13.62 77.65 77.65 0 0 0 7.57-18.33h-71.11v-40.31h116a87.7 87.7 0 0 1 1.68 9.92 90.36 90.36 0 0 1 .67 11.61c0 16-2.35 30.43-7.06 43.71a101.77 101.77 0 0 1-21.36 35.15 109.47 109.47 0 0 1-38 26.06c-14.8 6.22-31.78 9.25-50.78 9.25a126.59 126.59 0 0 1-88.29-35 124.34 124.34 0 0 1-26.9-38.84C3.49 533.84.3 517.2.3 499.37a123 123 0 0 1 9.92-49.43 118 118 0 0 1 26.9-39A122.6 122.6 0 0 1 77 385.36a127.25 127.25 0 0 1 48.43-9.25c19.5 0 36.82 3.37 51.79 10.09A118.93 118.93 0 0 1 216 414l-33 31.95ZM481.22 554.19q0 31-22.7 49.94c-15.3 12.28-34 18.5-56 18.5-19.51 0-36.83-5.72-51.8-17.15s-25.22-27.07-30.94-46.75l28.93-11.94A75.52 75.52 0 0 0 357 566a61.65 61.65 0 0 0 12.28 14.63 57.33 57.33 0 0 0 15.64 9.58 47.13 47.13 0 0 0 18.08 3.5c13.79 0 25.23-3.54 34-10.76s13.11-16.65 13.11-28.42c0-9.93-3.7-18.33-10.92-25.39-6.73-6.73-19.51-13.46-38.18-19.84-18.83-6.73-30.6-11.44-35.31-13.79-25.06-12.78-37.5-31.45-37.5-56.34q0-26 20.69-44.39c14.12-12.27 31.27-18.49 51.79-18.49 18 0 33.63 4.53 46.74 13.78 13.12 9.08 22 20.35 26.41 34l-28.09 11.6a42.16 42.16 0 0 0-15.64-21.86c-7.73-5.88-17.32-8.74-28.41-8.74-11.95 0-21.86 3.36-29.93 9.92-8.08 6.05-12.12 14.12-12.12 23.88 0 8.07 3.2 15.13 9.59 21 7.06 5.89 22.36 12.95 45.74 21 23.88 8.07 41 18.16 51.29 29.93 9.92 11.77 15 26.23 15 43.38ZM649.21 617.25h-28.93v-22.37h-1.34c-4.54 7.91-11.77 14.46-21.19 19.85a61.62 61.62 0 0 1-29.76 7.9c-19.84 0-35-5.72-45.57-17s-16-27.4-16-48.26V455.81h30.27v99.56c.67 26.4 14 39.51 39.86 39.51q18.15 0 30.27-14.63c8.07-9.75 12.1-21.52 12.1-35.14v-89.3h30.27v161.44ZM718.32 400.16A21.25 21.25 0 1 1 712.1 385a20.59 20.59 0 0 1 6.22 15.13Zm-6.22 55.66v161.43h-30.27V455.82ZM805.09 619.94q-19.68 0-32.79-12.11c-8.74-8.07-13.11-19.51-13.29-34v-90.26H730.6v-27.75h28.25v-49.44h30.26v49.44h39.52v27.75h-39.52v80.37c0 10.76 2 18 6.22 21.86a20.28 20.28 0 0 0 14.13 5.72 33.46 33.46 0 0 0 7.07-.84 36.77 36.77 0 0 0 6.38-2.18l9.59 27.07c-7.57 2.86-16.82 4.37-27.41 4.37ZM918.43 622.46c-23.71 0-43.22-8.07-58.69-24.38-15.3-16.31-23-36.83-23-61.55 0-24.55 7.4-45.06 22.37-61.37s34-24.56 57.34-24.56c23.88 0 43.05 7.74 57.17 23.21s21.19 37.16 21.19 65.08l-.34 3.36H867.64c.51 15.81 5.72 28.59 15.81 38.17a50.93 50.93 0 0 0 36.32 14.46c19.34 0 34.48-9.58 45.4-28.92l27.08 13.11a81 81 0 0 1-30.1 31.93c-12.95 7.57-27.58 11.44-43.72 11.44ZM870 517h92.66A40.17 40.17 0 0 0 949 489.11c-8.24-7.39-19.34-11.1-33.13-11.1-11.43 0-21.18 3.53-29.42 10.6-8.41 7.23-13.79 16.65-16.48 28.42Z"/></svg>