<svg id="Camada_5" data-name="Camada 5" xmlns="http://www.w3.org/2000/svg" viewBox="0 0 1000 303.55"><defs><style>.cls-1{fill:#070508}</style></defs><path class="cls-1" d="M848 433.24a42.51 42.51 0 1 1 42.51-42.51A42.47 42.47 0 0 1 848 433.24M848 542.59a42.51 42.51 0 1 1 42.51-42.51A42.47 42.47 0 0 1 848 542.59M957.49 542.59a42.51 42.51 0 1 1 42.51-42.51 42.47 42.47 0 0 1-42.51 42.51M848 651.78a42.51 42.51 0 1 1 42.51-42.51A42.47 42.47 0 0 1 848 651.78M738.29 651.78a42.51 42.51 0 1 1 42.51-42.51 42.47 42.47 0 0 1-42.51 42.51M738.29 433.24a42.51 42.51 0 1 1 42.51-42.51 42.47 42.47 0 0 1-42.51 42.51M738.29 542.59a42.51 42.51 0 1 1 42.51-42.51 42.47 42.47 0 0 1-42.51 42.51M546.42 567.59a54.2 54.2 0 0 0-19.33-18 48.45 48.45 0 0 0 14.5-15.17q5.5-9 5.5-22a48 48 0 0 0-16.17-36.67 50.1 50.1 0 0 0-18-10.17 72.17 72.17 0 0 0-23-3.67h-91.69v186h97a72.24 72.24 0 0 0 23.84-3.83 53.76 53.76 0 0 0 18.5-10.84 47.93 47.93 0 0 0 12-16.67 54.34 54.34 0 0 0 4.34-21.83c-.17-10.84-2.67-19.84-7.51-27.18m-113.66-76.64h54.51c8 0 14.17 1.83 18.67 5.66 4.33 3.84 6.66 9.5 6.66 16.84 0 7.5-2.16 13.33-6.66 17.5s-10.67 6.34-18.67 6.34h-54.51Zm80.18 120.52c-4.17 4.66-11 7-20.34 7h-59.84v-51.85h59.84c9.17 0 16 2.67 20.17 7.84 4.34 5.17 6.34 11.5 6.34 18.67 0 7.67-2 13.67-6.17 18.34M329.55 646.11a71.29 71.29 0 0 0 24.34-15.34 68.88 68.88 0 0 0 15.34-22.84 75.37 75.37 0 0 0 5.33-28V461.74h-34.5v118.19a50.94 50.94 0 0 1-3 18 36.31 36.31 0 0 1-8.67 13.34 35.44 35.44 0 0 1-13.34 8.33 47.91 47.91 0 0 1-17.33 2.84 51.64 51.64 0 0 1-17.34-2.84 39.87 39.87 0 0 1-13.5-8.33 36.94 36.94 0 0 1-8.67-13.34 49.67 49.67 0 0 1-3-18V461.74H220.7v118.19a74.09 74.09 0 0 0 5.34 28 65 65 0 0 0 15.33 22.84 73.27 73.27 0 0 0 24.17 15.34c9.51 3.66 20.17 5.5 32.34 5.5a81.67 81.67 0 0 0 31.67-5.5M98.18 647.77l42.18-81c2.5-4.67 4.66-9 6.66-13s3.84-8.17 5.51-12.17c1.83-4 3.5-8 5.16-12.17s3.5-8.5 5.5-13.17h1q-.49 7.5-1 14c-.33 4.33-.66 8.5-.83 12.66-.17 4-.33 8.34-.33 12.67-.17 4.34-.17 9-.17 14v78.35h34.51v-186.2h-38.51l-36.17 70.68c-2.5 4.84-4.67 9.17-6.84 13.34-2 4-4 8-5.83 12q-2.76 5.75-5.5 12c-1.84 4-3.67 8.5-5.5 13q-3-7-5.5-13l-5.51-12c-1.83-3.83-3.83-7.84-5.83-12-2-4-4.33-8.5-6.83-13.34l-36.18-70.68H0v186h34.51v-78.31c0-5 0-9.67-.17-14s-.17-8.51-.33-12.67c-.17-4-.5-8.34-.84-12.67s-.66-9-1-14h1c1.84 4.66 3.5 9 5.34 13.16s3.5 8.17 5.33 12.17 3.67 8 5.5 12.17c2 4 4.17 8.5 6.67 13Z" transform="translate(0 -348.22)"/><path class="cls-1" d="M575.93 113.52h34.51v186.03h-34.51z"/></svg>