<svg data-name="Camada 2" xmlns="http://www.w3.org/2000/svg" viewBox="0 0 956.99 997.5"><path d="M635.22 2.32c22.34-1.72 45-3.86 67.26-.2 19.24 3.1 36.5 13.05 52.21 24.14 64 45.28 128.43 90 192.33 135.45 14 10.13 31.38 22 30.41 41.58q.23 328.62.08 657.28c-.48 21.22 2.26 43.48-6.32 63.53-5.18 12.59-16.09 22.16-28.63 27.11-15.79 6.52-33.12 7.25-49.95 8.17q-311 18.76-622 37.56c-20.81 1.12-43.17 2.13-62.05-8.2-13.48-7.23-22.84-19.69-31.91-31.62Q114.85 876.83 53 796.61c-17.16-22.66-32.21-49-32.31-78.27q-.12-300.76-.05-601.5c-.43-16.62 1.65-34.14 11.09-48.3 10.48-16.14 29.87-24 48.48-25.3q277.5-20.56 555-40.92ZM125.6 95.52c-6.95.76-15.48 2.18-19 9.06-1.93 4.52 1.55 8.91 4.9 11.6q38.22 30.38 76.52 60.76c8.71 6.83 18 13.38 28.68 16.6 12.49 3.83 25.71 3.33 38.6 2.84q290.52-17.77 581.12-35c1.37-.43 4.14-1.24 5.51-1.67-.92-4.21-2.92-8.28-6.6-10.74-32.89-23.93-66-47.56-98.83-71.65-20.56-15.73-46.91-22.79-72.62-21Q394.74 75.78 125.6 95.52ZM857 228.74Q555 246.33 253 264c-9.34.45-19.7 2.1-26.32 9.36-7.06 7.77-7.92 18.86-8.1 28.86v578.66c-.05 11.65 2.21 24.72 11.78 32.48 11.27 8.91 26.57 8.83 40.25 8.18q301.83-17.44 603.68-34.93c10.08-.73 20.89-3.37 27.82-11.27 8.45-9.54 9.11-23 9.37-35.17V263.9c.05-12.59-2.54-28-15-34.22-12.59-5.17-26.45-.68-39.55-.94ZM679.79 341.92c44.9-2.87 89.85-5.05 134.75-8.05 2.94 12.44 2.13 30.1-11.68 35.58-11.47 3.05-23.27 4.67-34.87 7.19 0 142.13-.25 284.26.15 426.37-26.22 14.41-56.67 26.29-87 19.87-19.77-4.52-31.45-22.59-43.38-37.33q-95.25-149.09-190.13-298.43c.18 96.42-.05 192.82.11 289.21 20.12 4.24 40.15 9.06 60.25 13.43-1.07 19.92-20.1 33.37-38.83 34.34-48.12 2.66-96.25 5.71-144.37 8.25-2.64-11.07 1.09-25 12-30.13 12.26-4 24.82-6.9 37.18-10.58q-.1-191 0-382.06c-16.37-1.27-32.77-2.33-49.09-4-3.4-19.31 9-41.42 29.44-43.88 49.14-4 98.43-6.52 147.59-10.36Q601 502.59 699.94 653.9q-.18-133.78-.05-267.54c-16.9-2-33.83-3.73-50.71-5.89-3.83-19 11.75-37.34 30.61-38.55Z" transform="translate(-20.58 -.11)" style="fill:#050006"/></svg>