<svg id="Camada_16" data-name="Camada 16" xmlns="http://www.w3.org/2000/svg" viewBox="0 0 1000 1000"><defs><style>.cls-1{fill:#c4440e}</style></defs><path class="cls-1" d="M450.91 426.14q-29.87 0-48.48 21.54t-18.62 56.53q0 35 18.16 56.34t47.36 21.34q31.17 0 49.14-20.34t18-56.94q0-37.51-17.44-58t-48.09-20.48Zm-1.58 175.7q-40.29 0-64.53-26.55t-24.24-69.1q0-45.69 24.7-72.91t67.24-27.22q39.22 0 63.21 26.42t24 69.09q0 46.37-24.56 73.31t-65.79 27ZM693.3 413.86a28.76 28.76 0 0 1 14.39 3.56v-19.55q-5.81-2.39-15.71-2.38-18.36 0-30.65 12.36t-12.28 33.61v21.93h-54.23v-20.87q0-28.66 22.73-28.66a28.78 28.78 0 0 1 14.39 3.56v-19.55q-5.81-2.39-15.72-2.38-18.35 0-30.64 12.36t-12.29 33.61v21.93h-23.11v18.5h23.11v116.77h21.53V481.89h54.23v116.77h21.53V481.89h31.7v-18.5h-31.7v-20.87q0-28.66 22.72-28.66ZM744.2 598.66h-21.66V463.39h21.66v135.27Zm-10.57-169.61a13.73 13.73 0 0 1-9.91-4 13.3 13.3 0 0 1-4.09-10 13.87 13.87 0 0 1 14-14.13 14 14 0 0 1 10.11 4 14.15 14.15 0 0 1 0 20 13.9 13.9 0 0 1-10.11 4.09ZM865.4 592.46q-15.58 9.38-37 9.38-28.92 0-46.69-18.83T764 534.2q0-33.42 19.15-53.7t51.13-20.28q17.84 0 31.44 6.61V489q-15.07-10.57-32.24-10.56-20.73 0-34 14.85t-13.27 39q0 23.77 12.48 37.52t33.48 13.74q17.7 0 33.29-11.76v20.61ZM975.76 518.09q-.13-18.77-9-29.2t-24.77-10.43a35 35 0 0 0-26 11q-10.71 10.95-13.21 28.67ZM998 536.45h-95.56Q903 559 914.6 571.32t32 12.29q22.84 0 42-15.06v20.34q-17.82 12.95-47.16 13-28.67 0-45-18.43T880 531.56q0-31.57 17.9-51.46t44.45-19.88q26.55 0 41.08 17.18T998 525.09v11.36ZM3.13 599.48l.09.03 61.24-25.55V423.6l110.91-25.59v223.94L3.43 599.59l170.87 61.15 94.9-30.63V374.48l-94.9-31.95L3.13 408.6v190.88z"/></svg>