<svg id="Camada_8" data-name="Camada 8" xmlns="http://www.w3.org/2000/svg" viewBox="0 0 1000 1000"><defs><clipPath id="clip-path"><path style="fill:none" d="M.08.06H1000V1000H.08z"/></clipPath><style>.cls-4{fill-rule:evenodd;fill:#060800}</style></defs><g style="clip-path:url(#clip-path)"><path d="M1000 500c0 276.14-223.86 500-500 500S0 776.14 0 500 223.86 0 500 0s500 223.86 500 500Z" style="fill-rule:evenodd;fill:#7eaf5c"/></g><path class="cls-4" d="M865.41 402c-.15 36.2-38.11 58.37-69.9 40.38a554.6 554.6 0 0 0-66.62-32.48c-45.68-18.31-93-30.63-141.4-39.17a894 894 0 0 0-101.73-11.92 953 953 0 0 0-106.5-.54c-40.7 2.11-81.09 6.58-120.94 15.18-14.7 3.18-29.24 7.18-43.78 11.07-8.92 2.38-17.7 2.69-26.59.09a46.43 46.43 0 0 1-33.42-43.51c-.56-19.81 11.66-38.24 30.87-44.57 14.07-4.63 28.5-8.27 42.94-11.61 35.74-8.27 72-13.37 108.53-16.71a975.36 975.36 0 0 1 116.55-3.57c95.81 2.75 189.76 16.76 280.68 48.15a596.93 596.93 0 0 1 106.67 48.47c12.09 7.05 20.2 17 23.3 30.75.73 3.26.91 6.65 1.34 10ZM412.8 513.68c-57.11.24-115.61 7.32-172.75 24.28-9.31 2.76-18.65 2.94-27.78-.75a38.57 38.57 0 0 1-24-36.64c.55-16.42 10.56-30.72 26.39-35.55 16.11-4.92 32.46-9.19 48.91-12.84 40.48-9 81.51-13.74 123-15.32 89.19-3.38 176.32 8.15 261.33 35.4a593.88 593.88 0 0 1 122.93 54.91c1.93 1.15 3.85 2.32 5.77 3.49 20.25 12.38 22.67 37.29 13 53.16-11 18.15-34 23.8-53.1 13-10.77-6.08-21.41-12.41-32.42-18-50.47-25.72-104-42.4-159.51-52.91a717.35 717.35 0 0 0-131.77-12.23ZM421.73 598.38c65.74.69 130 9.57 192.47 30.62a511 511 0 0 1 98.52 45.23 83.25 83.25 0 0 1 7.95 5.1 30.82 30.82 0 0 1-31.06 52.77 77.34 77.34 0 0 1-8.25-4.57c-52.92-31.36-110-50.79-170.72-60.09a587.84 587.84 0 0 0-112.3-6.2c-48.65 1.91-96.69 8.66-144.21 19.19a72.76 72.76 0 0 1-14.63 2.07 29.81 29.81 0 0 1-29.72-24.42c-2.73-15 4.69-29 18.44-34.56a59.48 59.48 0 0 1 9.06-2.6c38.87-8.73 78.11-15.33 117.81-18.68 22.17-1.88 44.43-2.62 66.64-3.86Z"/></svg>