<svg data-name="Camada 1" xmlns="http://www.w3.org/2000/svg" viewBox="0 0 1000 1000"><defs><clipPath id="a"><path style="fill:none" d="M.16 297.26H1000v405.49H.16z"/></clipPath></defs><g style="clip-path:url(#a)"><path d="M324.32 608.16a67.7 67.7 0 0 1-67.57 67.56v27a94.7 94.7 0 0 0 81.08-46v-48.56Zm27 0a67.7 67.7 0 0 0 67.58 67.56v27a94.7 94.7 0 0 1-81.09-46v-48.56Zm324.35-216.31a67.68 67.68 0 0 1 67.56-67.56v-27a94.69 94.69 0 0 0-81.08 46v48.63Zm-27 0h13.52v-48.58a94.71 94.71 0 0 0-81.09-46v27a67.69 67.69 0 0 1 67.57 67.56Zm0 216.23a67.76 67.76 0 0 1-67.57 67.64v27a94.79 94.79 0 0 0 94.61-94.59ZM973 391.9h27a94.78 94.78 0 0 0-94.61-94.59v27A67.7 67.7 0 0 1 973 391.9ZM27 608.12H0a94.78 94.78 0 0 0 94.59 94.59v-27A67.69 67.69 0 0 1 27 608.12Zm391.9-310.81c-49.51 0-94.7 42.71-94.61 94.56h27.05c0-38.41 31.38-67.58 67.56-67.6-.09-12.86-.08-17.14 0-27Zm256.77 378.38v27h162.16V567.57H1000V391.9h-27v148.64H837.83V391.9h-27v283.78Zm67.56-378.43 162.16.05v27.05l-162.16-.07v-27Zm-67.5 251.18-.06 59.68h-27v-48.47L490.55 401.32l18.95-19.16 166.23 166.28Zm-351.41-96.86 166.23 166.28 18.95-19.16-158.13-158.33v-48.5h-27.05v59.71ZM0 297.31h324.32v27H189.19v283.24h-27V324.33H27v283.79H0V297.31Zm94.59 378.37h162.19v27.05H94.59v-27.05Zm324.33-378.36h162.16v27.05l-162.16-.09v-26.96Zm0 378.4 162.16.1v26.89H418.92v-26.99Z" style="fill:#1e1d1b;fill-rule:evenodd"/></g></svg>