<svg id="Camada_4" data-name="Camada 4" xmlns="http://www.w3.org/2000/svg" viewBox="0 0 1000 1000"><defs><style>.cls-2{fill:#080a00}.cls-3{fill:#fff}</style></defs><path d="M994 381.38s-5.82-40.89-23.69-58.9c-22.66-23.62-48.07-23.75-59.71-25.13-83.41-6-208.51-6-208.51-6h-.26s-125.11 0-208.5 6c-11.66 1.38-37.05 1.51-59.73 25.13-17.86 18-23.68 58.9-23.68 58.9s-6 48-6 96v45c0 48 6 96 6 96s5.82 40.89 23.68 58.9c22.68 23.63 52.46 22.88 65.72 25.35 47.69 4.56 202.64 6 202.64 6s125.23-.18 208.64-6.19c11.64-1.38 37.05-1.5 59.71-25.13 17.87-18 23.69-58.9 23.69-58.9s6-48 6-96v-45c0-48-6-96-6-96Z" style="fill:#b62a2e"/><path class="cls-2" d="M373.24 629.05h-37.93V607.1c-14.37 16.48-26.56 24.8-39.85 24.8-11.65 0-19.75-5.5-23.8-15.43-2.46-6-4.21-15.48-4.21-29.33V427.46h37.92v163.67c.89 5.6 3.27 7.65 8.09 7.65 7.26 0 13.83-6.31 21.85-17.63V427.46h37.93v201.59ZM201.59 569.18c2 20-4.2 29.86-16 29.86s-18-9.9-16-29.86v-79.84c-2-20 4.18-29.32 16-29.32s18 9.36 16 29.32v79.84Zm37.92-75.85c0-21.54-4.33-37.72-12-47.9-10.08-13.79-25.92-19.43-41.89-19.43-18.07 0-31.83 5.65-41.92 19.44-7.77 10.18-11.94 26.53-11.94 48.07v71.69c0 21.41 3.71 36.21 11.47 46.3 10.09 13.75 26.46 21 42.42 21s32.61-7.27 42.71-21c7.65-10.09 11.18-24.89 11.18-46.3v-71.87ZM89.82 519.27v109.78H49.9V519.27S8.53 384.69 0 359.61h41.91l28 105.13L97.8 359.61h41.91L89.82 519.27Z"/><path class="cls-3" d="M878.2 483.27c0-18.66 5.11-23.74 17.18-23.74s16.75 5.54 16.75 24v21.77H878.2v-22.03Zm71.93 52v-40.8c0-21.31-4.2-36.91-11.76-47-10.12-13.64-24.51-20.87-42.64-20.87-18.45 0-32.84 7.23-43.29 20.87-7.67 10.09-12.15 26.57-12.15 47.89v69.86c0 21.19 4.92 36 12.6 46 10.45 13.63 24.84 20.43 43.74 20.43s33.71-7.13 43.7-21.62a51.49 51.49 0 0 0 8.45-21.65 228.63 228.63 0 0 0 1.28-23.5v-5.66h-37.93c0 14.5.07 23.12-.27 25.09-2.06 9.66-7.24 14.5-16.14 14.5-12.41 0-17.65-9.28-17.52-27.69v-35.88ZM778.4 571.17c0 20-4.7 27.61-15.12 27.61-5.95 0-12.8-3.06-18.85-9.1v-121c6-6 12.86-9.1 18.81-9.1 10.42 0 15.12 5.86 15.12 25.82v85.82Zm4.21-144.91c-13.29 0-26.5 8.18-38.18 22.54v-87.2h-35.88v267.45h35.92v-20.1c12.08 14.95 25.25 22.67 38.09 22.67 14.39 0 24.9-7.7 29.73-22.53 2.41-8.46 4-21.47 4-39.91v-79.84c0-18.89-2.42-31.81-4.84-39.83-4.82-14.94-14.49-23.25-28.88-23.25ZM678.61 629.05h-37.92V607.1c-14.38 16.48-26.56 24.8-39.85 24.8-11.65 0-19.75-5.5-23.8-15.43-2.47-6-4.21-15.48-4.21-29.33V429.46h37.92v161.67c.88 5.6 3.26 7.65 8.09 7.65 7.25 0 13.82-6.31 21.85-17.63V429.46h37.92v199.59Z"/><path class="cls-3" d="M534.9 629.05h-39.91V399.52h-41.92v-37.88l125.75-.04v37.92H534.9v229.53z"/></svg>