<svg data-name="Camada 1" xmlns="http://www.w3.org/2000/svg" viewBox="0 0 192 63.1"><g data-name="Logo SA-SEL azul sem fundo" fill="#228ebf" fill-rule="evenodd"><path d="M42.7 53.9c-14.6 5-24.7.9-31.4-8.1C1.8 33.1 9.8 16 14.2 14.3l7.2 27.3L35.5 35l7.2 18.9Zm-.8 7.5c25.2-8.3 28.9-43.2 6.2-56.9C41.4.5 33.8-1 24.1.7c.5 2.4.8 4.7 1.9 6.4 14.3-1.9 24.2 4.3 28.7 15 5.2 12.4-2.1 27.5-10.4 30.5L40 23l-13.9 7-6.8-27c-1.3-.6-3.5 1-5.1 2.1A20.2 20.2 0 0 0 10 8.5C1.3 17.6-2.8 29.7 2.2 42.8a31.5 31.5 0 0 0 39.7 18.6Z"/><path d="M35.8 50.2c-10.2 5.2-16.1-.3-20.3-2.1a18.7 18.7 0 0 0 10.4 5.7c3.7.8 10.6.7 13.6-1.4l-3.7-9v6.8ZM91.7 35.1 80.3 24v-7h6.9v7.3h5.7v-9.2a2.7 2.7 0 0 0-3-3H77.7c-2 0-3 1-3 3.1v9.1a4.5 4.5 0 0 0 1.2 3.2l11.3 11v7.7h-6.9v-7.9h-5.6V48c0 2 1 3.1 3 3.1h12.2c2 0 3-1.1 3-3.1v-9.8a4.1 4.1 0 0 0-1.2-3.1ZM109 38.7h-5.5l2.7-17.6 2.8 17.6Zm-5.7-26.6L96 51h5.6l1.1-7.4h7.1L111 51h5.5l-7.2-39ZM119.3 29v5.2h11.5V29h-11.5zM136.1 27.5l11.4 11v7.7h-7v-7.9h-5.6V48c0 2 1 3.1 3 3.1h12.2c2 0 3-1.1 3-3.1v-9.8a4.1 4.1 0 0 0-1.2-3.1L140.5 24v-7h7v7.3h5.6v-9.2a2.7 2.7 0 0 0-3-3h-12.2c-2 0-3 1-3 3.1v9.1a4.5 4.5 0 0 0 1.2 3.2ZM157.6 12.1v39h15.7v-5.2h-10.1V33.7h8.6v-5.1h-8.6V17.2h9.9v-5.1h-15.5zM177.2 12.1v39H192v-5.2h-9.2V12.1h-5.6z"/></g></svg>