<svg data-name="Camada 1" xmlns="http://www.w3.org/2000/svg" viewBox="0 0 84 84"><g data-name="Logo azul sem fundo" fill="#228ebf" fill-rule="evenodd"><path d="M56.8 71.8C37.4 78.4 24 72.9 15 60.9 2.4 44.1 13 21.3 18.8 19l9.7 36.4 18.7-8.8 9.6 25.2Zm-1.1 9.9C89.2 70.6 94.2 24.2 64 6 55 .6 44.9-1.4 32.1 1c.7 3.1 1 6.2 2.5 8.5 19-2.6 32.2 5.7 38.1 19.9C79.7 46 70 65.9 58.9 70l-5.7-39.4-18.5 9.2-9-35.8c-1.8-.7-4.6 1.3-6.8 2.8a31.5 31.5 0 0 0-5.6 4.5C1.7 23.4-3.8 39.5 2.9 56.9s28.1 33 52.8 24.8Z"/><path d="M47.6 66.8c-13.6 6.9-21.4-.5-27-2.8a25.4 25.4 0 0 0 13.8 7.6c5 1.1 14.1.9 18.1-1.9l-4.8-11.9v9Z"/></g></svg>