<svg data-name="Camada 1" xmlns="http://www.w3.org/2000/svg" viewBox="0 0 192.2 63.1"><g data-name="Logo SA-SEL + Escrito azul sem fundo" fill="#228ebf"><path d="M42.7 53.9c-14.6 5-24.7.9-31.4-8.1C1.8 33.1 9.8 16 14.2 14.3l7.2 27.3L35.5 35l7.2 18.9Zm-.8 7.5c25.2-8.3 28.9-43.2 6.2-56.9C41.4.5 33.8-1 24.1.7c.5 2.4.8 4.7 1.9 6.4 14.3-1.9 24.2 4.3 28.7 15 5.2 12.4-2.1 27.5-10.4 30.5L40 23l-13.9 7-6.8-27c-1.3-.6-3.5 1-5.1 2.1A20.2 20.2 0 0 0 10 8.5C1.3 17.6-2.8 29.7 2.2 42.8a31.5 31.5 0 0 0 39.7 18.6Z" fill-rule="evenodd"/><path d="M36.7 50.3c-10.2 5.2-16.1-.3-20.3-2.1a18.1 18.1 0 0 0 10.4 5.7c3.7.9 10.6.7 13.6-1.4l-3.7-9v6.8ZM91.7 32.5l-11.4-11v-7.1h6.9v7.4h5.7v-9.3a2.7 2.7 0 0 0-3-3H77.7c-2 0-3 1-3 3.1v9.2a4.3 4.3 0 0 0 1.2 3.1l11.3 11v7.7h-6.9v-7.9h-5.6v9.7c0 2 1 3.1 3 3.1h12.2c2 0 3-1.1 3-3.1v-9.8a4.1 4.1 0 0 0-1.2-3.1ZM109 36.1h-5.5l2.7-17.6 2.8 17.6Zm-5.7-26.6L96 48.4h5.6l1.1-7.4h7.1l1.1 7.4h5.6l-7.2-39ZM119.3 27v5.2h11.5V27h-11.5zM136.1 24.9l11.4 11v7.7h-7v-7.9h-5.6v9.7c0 2 1 3.1 3 3.1h12.2c2 0 3-1.1 3-3.1v-9.8a4.1 4.1 0 0 0-1.2-3.1l-11.4-11v-7.1h7v7.4h5.6v-9.3a2.7 2.7 0 0 0-3-3h-12.2c-2 0-3 1-3 3.1v9.2a4.3 4.3 0 0 0 1.2 3.1ZM157.6 9.5v39h15.7v-5.2h-10.1V31.1h8.6V26h-8.6V14.7h9.9V9.5h-15.5zM177.2 9.5v39H192v-5.2h-9.2V9.5h-5.6z" fill-rule="evenodd"/><path d="M77.4 58.6c0 .1-.1.2-.1.3H75a.4.4 0 0 1-.1-.3V57h.5v1.5h1.4V57l-1.7-2.1c-.2-.1-.2-.3-.2-.5v-1.2c0-.2 0-.3.1-.4h2.3c0 .1.1.2.1.4v1.4h-.6v-1.4h-1.4v1.3l1.8 2.2a.8.8 0 0 1 .2.4v1.5Zm3.1 0c0 .3-.1.4-.4.4h-1.3c-.3 0-.5-.1-.5-.4v-3a.5.5 0 0 1 .5-.5h1.3c.3 0 .4.2.4.5V57l-.2.2h-1.5v1.4H80v-.7h.5v.7Zm-.5-1.9v-1.2h-1.2v1.2Zm3.6 1.9c0 .3-.1.4-.5.4h-1.2c-.3 0-.5-.1-.5-.4v-3a.5.5 0 0 1 .5-.5h1.2c.4 0 .5.2.5.5v.7h-.5v-.7H82v3h1.1v-.9h.5v.9Zm3-2.2H86v-.8h-1V59h-.5v-3.9h1.6c.3 0 .5.1.5.4v.9Zm2.8 2.2c0 .3-.1.4-.4.4h-1.3c-.3 0-.5-.1-.5-.4v-3a.5.5 0 0 1 .5-.5H89c.3 0 .4.2.4.5v1.6h-1.6v1.4h1.1v-.7h.5v.7Zm-.5-1.9v-1.2h-1.1v1.2Zm2.9 2.3H91c-.3 0-.5-.1-.5-.4v-3h-.4v-.5h.4v-1.2h.6v1.2h.7v.5h-.7v3h.7v.4Zm2.9 0h-1.8a.5.5 0 0 1-.5-.5v-1.3a.5.5 0 0 1 .5-.5h1.3v-1.2H93v.7h-.5v-.6c0-.3.1-.5.4-.5h1.3a.5.5 0 0 1 .5.5V59Zm-.5-.4v-1.4H93v1.4Zm3.4-2.2h-.5v-.8h-1V59h-.5v-3.9h1.6c.3 0 .4.1.4.4v.9Zm1.3-2.2h-.6v-.7h.6v.7Zm0 4.8h-.6v-3.9h.6V59Zm3.1 0h-1.8c-.3 0-.4-.2-.4-.5v-1.3c0-.3.1-.5.4-.5h1.3v-1.2h-1.2v.7h-.5v-.6a.5.5 0 0 1 .4-.5h1.4c.3 0 .4.2.4.5V59Zm-.5-.4v-1.4h-1.2v1.4Zm8.6 0c0 .3-.2.4-.5.4h-1.3c-.3 0-.4-.1-.4-.4v-3c0-.3.1-.5.4-.5h1.3a.5.5 0 0 1 .5.5v.7h-.6v-.7h-1.1v3h1.1v-.9h.6v.9Zm3.1.4h-1.8a.5.5 0 0 1-.5-.5v-1.3a.5.5 0 0 1 .4-.5h1.3v-1.2h-1.1v.7h-.5v-.6c0-.3.1-.5.4-.5h1.3a.5.5 0 0 1 .5.5V59Zm-.6-.4v-1.4h-1.2v1.4Zm3.7.4h-.5l-1 .2a.9.9 0 0 1-.6-.3.8.8 0 0 1-.2-.5V56a.9.9 0 0 1 .3-.7.8.8 0 0 1 .6-.2h.9v-2.4h.5V59Zm-.5-.4v-3h-.8c-.3 0-.4.1-.4.4v2.1c0 .3.1.5.4.5Zm3.6 0c0 .3-.2.4-.5.4h-1.3c-.3 0-.4-.1-.4-.4v-3c0-.3.1-.5.4-.5h1.3a.5.5 0 0 1 .5.5V57l-.2.2h-1.5v1.4h1.2v-.7h.5v.7Zm-.5-1.9v-1.2h-1.2v1.2Zm.3-1.9h-.3l-.6-.5-.6.5h-.4l.8-.9h.4l.7.9Zm5.1 4.2h-.6v-3.4h-1.2V59h-.5v-3.4h-1.2V59h-.5v-3.9h3.5c.3 0 .5.1.5.4V59Zm1.4-4.8h-.6v-.7h.6v.7Zm0 4.8h-.5v-3.9h.5V59Zm3.1-.4c0 .3-.2.4-.5.4h-1.2c-.3 0-.5-.1-.5-.4v-3a.5.5 0 0 1 .5-.5h1.2a.5.5 0 0 1 .5.5v.7h-.5v-.7h-1.2v3h1.2v-.9h.5v.9Zm3.1.4h-1.8c-.3 0-.4-.2-.4-.5v-1.3c0-.3.1-.5.4-.5h1.3v-1.2h-1.2v.7h-.5v-.6c0-.3.1-.5.4-.5h1.3c.4 0 .5.2.5.5V59Zm-.5-.4v-1.4h-1.2v1.4Zm5.3.4h-.6l-.9.2a.7.7 0 0 1-.6-.3.8.8 0 0 1-.2-.5V56a1.4 1.4 0 0 1 .2-.7l.6-.2h.9v-2.4h.6V59Zm-.6-.4v-3h-.7c-.3 0-.5.1-.5.4v2.1a.5.5 0 0 0 .5.5Zm3.7.4H138a.5.5 0 0 1-.5-.5v-1.3a.5.5 0 0 1 .5-.5h1.3v-1.2h-1.2v.7h-.5v-.6c0-.3.1-.5.4-.5h1.3a.5.5 0 0 1 .5.5V59Zm-.5-.4v-1.4h-1.2v1.4Zm5.1.4h-2v-6.3h2v.5h-1.5v2.4h1.4v.5h-1.4v2.4h1.5v.5Zm3.1 0h-.5v-3.4h-1.2V59h-.5v-3.9h1.8c.3 0 .4.1.4.4V59Zm3.1 1.1c0 .3-.1.4-.4.4h-1.3c-.3 0-.4-.1-.5-.4a.4.4 0 0 1 .1-.3v-.2h.5v.5h1.1V59h-.9a.7.7 0 0 1-.6-.2 1.4 1.4 0 0 1-.2-.6v-2.3a1.4 1.4 0 0 1 .2-.6l.6-.2h1.4v5Zm-.5-1.5v-3h-.7a.5.5 0 0 0-.5.5v2.1a.5.5 0 0 0 .5.5Zm3.6 0c0 .3-.1.4-.4.4H152c-.3 0-.5-.1-.5-.4v-3a.5.5 0 0 1 .5-.5h1.3c.3 0 .4.2.4.5v1.6h-1.5v1.4h1.1v-.7h.5v.7Zm-.5-1.9v-1.2h-1.1v1.2Zm3.7 2.3h-.5v-3.4h-1.2V59h-.6v-3.9h1.9c.3 0 .4.1.4.4V59Zm3.1 0h-.5v-3.4h-1.2V59h-.5v-6.3h.5v2.5h1.3c.3 0 .4.1.4.4V59Zm3.2 0h-1.9a.5.5 0 0 1-.4-.5v-1.3a.5.5 0 0 1 .4-.5h1.3v-1.2h-1.1v.7h-.6v-.6a.5.5 0 0 1 .5-.5h1.3a.5.5 0 0 1 .5.5V59Zm-.6-.4v-1.4h-1.2v1.4Zm3.5-2.2h-.5v-.8h-1V59h-.6v-3.9h1.7c.3 0 .4.1.4.4v.9Zm1.3-2.2h-.6v-.7h.6v.7Zm0 4.8h-.6v-3.9h.6V59Zm3.1 0h-1.8c-.3 0-.4-.2-.4-.5v-1.3c0-.3.1-.5.4-.5h1.3v-1.2h-1.2v.7h-.5v-.6c0-.3.1-.5.4-.5h1.3a.5.5 0 0 1 .5.5V59Zm-.5-.4v-1.4h-1.2v1.4Zm5.2.4h-2.1v-6.3h2v.5h-1.5v2.4h1.4v.5h-1.4v2.4h1.6v.5Zm1.3 0h-.5v-6.3h.5V59Zm3.2-.4c0 .3-.2.4-.5.4h-1.3c-.3 0-.4-.1-.4-.4v-3c0-.3.1-.5.4-.5h1.3a.5.5 0 0 1 .5.5V57l-.2.2H178v1.4h1.1v-.7h.6v.7Zm-.6-1.9v-1.2H178v1.2Zm.3-2.9-1 1h-.3l.6-.9ZM182 59h-.8c-.3 0-.4-.1-.4-.4v-3h-.5v-.5h.5v-1.2h.5v1.2h.7v.5h-.7v3h.7v.4Zm2.7-2.6h-.5v-.8h-1V59h-.5v-3.9h1.6c.3 0 .4.1.4.4v.9Zm1.3-2.2h-.6v-.7h.6v.7Zm0 4.8h-.5v-3.9h.5V59Zm3.1-.4c0 .3-.2.4-.5.4h-1.2c-.3 0-.5-.1-.5-.4v-3a.5.5 0 0 1 .5-.5h1.2a.5.5 0 0 1 .5.5v.7h-.5v-.7h-1.2v3h1.2v-.9h.5v.9Zm3.1.4h-1.8c-.3 0-.4-.2-.4-.5v-1.3c0-.3.1-.5.4-.5h1.3v-1.2h-1.2v.7h-.5v-.6c0-.3.1-.5.4-.5h1.3a.5.5 0 0 1 .5.5V59Zm-.5-.4v-1.4h-1.2v1.4Zm-84.5.4h-.6l-.2-1.4h-1.3l-.2 1.4h-.5l1.1-6.3h.5l1.2 6.3Zm-.9-1.9-.5-3.4-.6 3.4Z"/></g></svg>