<svg data-name="Layer 1" xmlns="http://www.w3.org/2000/svg" viewBox="0 0 150 68.4"><path d="M29.1 36.2c-1.7 1.6-4.7 1.5-4.7 1.5a2.2 2.2 0 0 0 1.7 1.9 4.5 4.5 0 0 0 3-3.4ZM11 36.2a7.8 7.8 0 0 0 4.8 1.5 2.4 2.4 0 0 1-1.8 1.9 4.7 4.7 0 0 1-3-3.4Z" fill="#202020" fill-rule="evenodd"/><path d="M13.8 55.9a9.3 9.3 0 0 1-2.8 6.7c5.5 3 9.2 2.7 9.2 2.7s3.7.3 8.9-2.7a9.3 9.3 0 0 1-2.8-6.7 22.3 22.3 0 0 0 3.9-4.3c.5 5.6.7 12.3.9 16.8.3-10 6.1-16.5 8.6-22 .7-1.4 0-1.5-1.6-2.8s-2.8-2.1-2.6-6.8 1.9-6.9-1.4-12.5a14.8 14.8 0 0 0-5.1-4.8 24.2 24.2 0 0 0-4.6-1.7 14.7 14.7 0 0 0-4.4-.4l-4.4.4a18.8 18.8 0 0 0-4.6 1.7c-3 1.6-4 3.5-5.1 4.8-3.3 5.4-1.1 8.3-1.4 12.5s-.7 5.4-2.6 6.8-2.3 1.3-1.6 2.8c2.6 5.5 8.2 12 8.6 22 .2-4.5.3-11.2.9-16.8a29.3 29.3 0 0 0 3.8 4.3Zm-3.7-7v-.2a28 28 0 0 1 1.6-6.5c-5.8-2.1-2.6-10.4 1.8-9.6a5.7 5.7 0 0 1 4.5 7.5 6.8 6.8 0 0 1-1.9 2.5 17.6 17.6 0 0 1 4.1 4.7 11.6 11.6 0 0 1 4-4.7 5.1 5.1 0 0 1-1.9-2.5 5.7 5.7 0 0 1 4.5-7.5c4.6-.8 7.8 7.5 1.8 9.6a25.6 25.6 0 0 1 1.6 6.5v.2a13.9 13.9 0 0 1-3.5 4.4 19.4 19.4 0 0 1-1.8 1.4 19.5 19.5 0 0 1-4.7 2.8c-1.1-.1-3.7-2.1-4.6-2.8l-1.8-1.6a13.9 13.9 0 0 1-3.5-4.4l-.2.2ZM23.3 12.5c0-.4-.7-8.8 2.3-10.7C23.9 0 20.2 0 20.2 0s-3.9 0-5.5 1.8c3 1.9 2.3 10.3 2.3 10.7a10.5 10.5 0 0 1 3.3-.7 11.9 11.9 0 0 1 3.4.7ZM23.3 13.5a10.5 10.5 0 0 0-3.3-.7 12.6 12.6 0 0 0-3.4.7 2.1 2.1 0 0 1-1 .4c-.2 1.9-.2 2.6-.2 2.6a19.4 19.4 0 0 1 4.4-.3l4.4.3s0-.7-.2-2.6a2.1 2.1 0 0 0-1-.4Z" fill="#202020" fill-rule="evenodd"/><path d="m58.9 35.5-.6 1.3a3.6 3.6 0 0 1-3 1.4 3.6 3.6 0 0 1-2.9-1.4 5.4 5.4 0 0 1-.9-3.4 5.3 5.3 0 0 1 .9-3.3 3.6 3.6 0 0 1 2.9-1.4 3.6 3.6 0 0 1 3 1.4 2.5 2.5 0 0 1 .7 1.2l2.7-.5a7.5 7.5 0 0 0-1.3-2.5 6.8 6.8 0 0 0-9.8 0 7.7 7.7 0 0 0-1.6 5 7.1 7.1 0 0 0 1.6 4.7 6.2 6.2 0 0 0 4.9 2.3 5.8 5.8 0 0 0 4.9-2.3 4.7 4.7 0 0 0 1.1-1.9l-2.5-.7Zm10.7 5a5.9 5.9 0 0 0 4.9-2.3 7.5 7.5 0 0 0 1.6-4.8 6.9 6.9 0 0 0-1.6-4.9 6.4 6.4 0 0 0-4.9-2.1 6.1 6.1 0 0 0-4.9 2.1 7.2 7.2 0 0 0-1.6 4.9 7.3 7.3 0 0 0 1.6 4.8 6.5 6.5 0 0 0 4.9 2.3Zm0-2.5a3.7 3.7 0 0 1-3-1.4 5.3 5.3 0 0 1-.9-3.3 5.4 5.4 0 0 1 .9-3.4 3.9 3.9 0 0 1 6 0 5.4 5.4 0 0 1 .9 3.4 5.3 5.3 0 0 1-.9 3.3 3.7 3.7 0 0 1-3 1.4Zm22.7-11.4h-2.6l-4.4 8.9-4.4-8.9h-2.7v13.5h2.7V32l3.8 8.1h.9l3.9-8.1v8.1h2.6V26.6Zm2.8 0v13.5h2.6V26.6Zm15.5 3.5a4.8 4.8 0 0 0-2.7-3 5.5 5.5 0 0 0-2.8-.7 5.8 5.8 0 0 0-2.8.5 3.6 3.6 0 0 0-2.1 3.4 3.7 3.7 0 0 0 1.2 2.6 5.6 5.6 0 0 0 2.7 1.2l2.4.7 1.3.6c.3.1.3.5.3.8a1.8 1.8 0 0 1-.5 1.1 3.6 3.6 0 0 1-2.1.5 3.2 3.2 0 0 1-2.5-1 6.1 6.1 0 0 1-.7-1.8l-2.6.7a6.4 6.4 0 0 0 1.2 2.7c1.1 1.4 2.6 1.7 4.4 1.7a6.6 6.6 0 0 0 3.7-.9 3.8 3.8 0 0 0 1.8-3.1 4.1 4.1 0 0 0-1.3-2.8 4.9 4.9 0 0 0-2.4-1.3l-2.3-.7a8.4 8.4 0 0 1-1.6-.7c-.2-.2-.4-.3-.4-.7a1 1 0 0 1 .7-1 4.2 4.2 0 0 1 1.6-.4 2.3 2.3 0 0 1 1.6.5 2.8 2.8 0 0 1 1.2 1.6l2.7-.7v.2Zm13 0a4.9 4.9 0 0 0-2.6-3 6.1 6.1 0 0 0-2.8-.7 5.9 5.9 0 0 0-2.9.5 3.6 3.6 0 0 0-2.1 3.4 3.5 3.5 0 0 0 1.3 2.6 5.2 5.2 0 0 0 2.6 1.2l2.5.7 1.2.6c.3.1.3.5.3.8a1.4 1.4 0 0 1-.5 1.1 3.6 3.6 0 0 1-2.1.5 3.3 3.3 0 0 1-2.5-1 6.1 6.1 0 0 1-.7-1.8l-2.6.7a6.4 6.4 0 0 0 1.2 2.7c1.1 1.4 2.7 1.7 4.4 1.7a6.4 6.4 0 0 0 3.7-.9 3.8 3.8 0 0 0 1.8-3.1 4 4 0 0 0-1.2-2.8 5.8 5.8 0 0 0-2.5-1.3l-2.3-.7a8.4 8.4 0 0 1-1.6-.7.8.8 0 0 1-.3-.7.9.9 0 0 1 .7-1 3.4 3.4 0 0 1 1.6-.4 2.1 2.1 0 0 1 1.5.5 3.4 3.4 0 0 1 1.3 1.6l2.6-.7v.2Zm5.1-5.8c-.2-.4 0-.7.4-.7s.8.3 1.4.5a2.7 2.7 0 0 0 1.9.4 1.7 1.7 0 0 0 1.1-.9 2.9 2.9 0 0 0 .1-1.6h-1.4a.4.4 0 0 1-.3.7c-.5 0-.9-.4-1.4-.5a2.5 2.5 0 0 0-2-.4 1.5 1.5 0 0 0-1 .9 2.1 2.1 0 0 0-.2 1.6Zm5.1 16h2.7l-4.1-13.6h-3.9l-4 13.6h2.6l.7-2.1h5.5l.7 2.1Zm-5.4-4.6 1.9-6.7 2.1 6.7Zm15.1 4.8a5.9 5.9 0 0 0 4.9-2.3 7.5 7.5 0 0 0 1.6-4.8 7.4 7.4 0 0 0-1.6-4.9 6.4 6.4 0 0 0-4.9-2.1 6.1 6.1 0 0 0-4.9 2.1 7.2 7.2 0 0 0-1.6 4.9 7.3 7.3 0 0 0 1.6 4.8 6.5 6.5 0 0 0 4.9 2.3Zm0-2.5a3.7 3.7 0 0 1-3-1.4 5.3 5.3 0 0 1-.9-3.3 5.4 5.4 0 0 1 .9-3.4 3.9 3.9 0 0 1 6 0 5.4 5.4 0 0 1 .9 3.4 5.3 5.3 0 0 1-.9 3.3 3.7 3.7 0 0 1-3 1.4Zm-80.1 8.3h-2.6l-4.4 8.9-4.4-8.9h-2.6v13.5H52v-8.1l3.9 8.1h.9l3.8-8.1v8.1h2.7V46.3Zm2.9 0v13.5h2.6V46.3Zm7.5 0h-2.3v13.5h2.7V51l6.1 8.8h2.3V46.3H80v8.8l-6.2-8.8Zm20.6 2.6v-2.6h-8.8v13.5h8.8v-2.6h-6.3v-3h5.1v-2.6h-5.1v-3h6.3v.3Zm12.5 4.6a5.1 5.1 0 0 0 .9-2.7 5.1 5.1 0 0 0-.9-2.6 4.2 4.2 0 0 0-2.3-1.6 3 3 0 0 0-1.4-.2H97V60h2.7v-4.6h3L105 60h2.8l-2.5-5.1a5.2 5.2 0 0 0 1.6-1.2v-.2Zm-7.2-4.8h3.7a2.7 2.7 0 0 1 1.4.7 2.4 2.4 0 0 1 .5 1.4 4.2 4.2 0 0 1-.3 1.3 2.4 2.4 0 0 1-1.6.9h-3.7v-4.3Zm12.6 11.1h3.9l4.1-13.5h-2.7l-3.5 11.1-3.3-11.1h-2.7l4.1 13.5Zm16.2 0h2.7l-4.1-13.5h-3.8l-4.1 13.5h2.7l.7-2.1h5.4l.7 2.1Zm-5.4-4.6 1.9-6.6 2.1 6.6Z" fill="#202020"/></svg>