<svg xmlns="http://www.w3.org/2000/svg" viewBox="0 0 150 69.9"><g data-name="2063740143664"><path d="M105 24.3c-.6 0-1.3-.2-1.7.1s-.2 1-.4 1.5c-1.3 4.5-2.5 9.1-4 13.6h5.3c.2 0 .3 0 .3-.3l1.2-4.7c1-3.4 1.8-6.9 3.1-10.2ZM126.9 39.3a4.9 4.9 0 0 1-.7-1.9l-3-12.6c-.1-.4-.2-.6-.6-.6a40.1 40.1 0 0 1-4.9 0c-.4 0-.5.2-.3.5a.8.8 0 0 1-.1 1c-3.8 4.5-7.2 9.3-11.2 13.6-.3.1-.3.3 0 .3h3a.2.2 0 0 0 .2-.2 17 17 0 0 1 2.6-3.8c.1-.3.3-.3.6-.3h7.1a.5.5 0 0 1 .6.4 17.7 17.7 0 0 1 .5 3.2c0 .2-.5.6.2.6h5.9c.2 0 .3-.1.1-.3Zm-8.6-11.7c.3 1.5.7 2.9 1 4.2s.3 1.4-1.1 1.4h-4.4l4.5-5.6ZM77.3 39.3a9 9 0 0 1-.8-2.3c-.9-4.1-1.9-8.1-2.8-12.2a.7.7 0 0 0-.8-.6h-4.7q-.7 0-.3.6c.3.4.1.6-.2 1-3.7 4.5-7.2 9.2-11.2 13.5-.5.3-.1.3.1.3h2.8c.2 0 .3 0 .4-.2a14 14 0 0 1 2.6-3.9c.1-.2.3-.2.5-.2h7.2c.2 0 .4-.1.5.2s.8 2.5.4 3.9h6.2c.2.2.3.1.1-.1Zm-8.6-11.7c.5 1.8.9 3.5 1.3 5.2s-.1.4-.4.4h-5.4ZM146.9 24.2h-11.1c-2.1 0-3.7.7-4.3 2.5a22.3 22.3 0 0 0-1.3 4.4 1.8 1.8 0 0 0 1.8 2.5h7.5c.8 0 .9.2.7 1a10.9 10.9 0 0 1-.5 1.7 1.1 1.1 0 0 1-1.3 1h-8.1c-.6 0-1.4-.5-1.7-.1a4.3 4.3 0 0 0-.2 2c.1.4.4.2.7.2h11.2c1.8 0 3.7-.7 4.4-2.6s.9-3.1 1.3-4.7-.3-2.6-2-2.8h-7.2c-.9 0-1-.2-.7-1.1l.3-1.1a1.2 1.2 0 0 1 1.2-1c3 0 5.9-.1 8.9.1.3 0 .8.4 1 .1s.2-.8.2-1.2.2-1.1-.8-1.1ZM97.9 24.4a2.9 2.9 0 0 0-1.3-.1h-14a35.7 35.7 0 0 1-1.1 4.7c-1.1 3.4-1.8 6.9-3.1 10.2-.4.7.2.4.4.4H92a4.5 4.5 0 0 0 4.5-2.7c.3-.9.6-1.9.8-2.8s0-1.5-1-2l-.5-.2a2.9 2.9 0 0 0 2.5-1.6 16.6 16.6 0 0 0 1.1-3.8 1.8 1.8 0 0 0-1.5-2.1Zm-5.7 9.4c-.2 1-.5 1.9-.8 2.9s-.5.8-1.2.8h-2.7a22.5 22.5 0 0 0-2.6 0c-.4 0-.6-.1-.5-.5s.7-2.5 1.1-3.7.3-.6.7-.5h5.3c.8 0 .9.2.7.9Zm1.9-6.6a25 25 0 0 0-.7 2.6 1.2 1.2 0 0 1-1.4 1h-5.5c-.2 0-.2-.1-.2-.3l1.3-4.4h5.9a.7.7 0 0 1 .6 1.1Z" fill="#852a29"/><path d="M1.8 46.5c.1.1.1.2.1.4a.9.9 0 0 1-.9 1c-.6 0-.9-.4-.9-1v-.4h.4c-.1.1-.1.2-.1.4a.6.6 0 0 0 .6.6.6.6 0 0 0 .6-.6.6.6 0 0 0-.1-.4ZM.1 46.1v-.6a.7.7 0 0 1 .1-.5.5.5 0 0 1 .4-.2.4.4 0 0 1 .4.3h.1c0-.1.1-.2.3-.2l.5-.2v.4l-.4.2a.3.3 0 0 0-.3.3h.7v.4Zm.8-.4v-.2a.3.3 0 0 0-.3-.3c-.1 0-.2.1-.2.3v.2ZM1.1 43.3v.7h.5v-.8h.3v1.2H.1v-1.1h.3v.7h.4v-.7h.3zM1.8 41.5c.1.1.1.2.1.4a.9.9 0 0 1-.9 1c-.6 0-.9-.4-.9-1v-.4h.4c-.1.1-.1.2-.1.4a.6.6 0 0 0 .6.6.6.6 0 0 0 .6-.6.6.6 0 0 0-.1-.4ZM.1 40.7h1.8v.4H.1v-.4zM.1 39.2v-.4h1.1c.5 0 .7.2.7.6v.3h-.3v-.2c0-.1-.1-.2-.4-.2ZM1.1 37.7h.2v.7h-.2v-.7zM1.9 37.4h-.3l-.2-.3c-.3-.3-.5-.5-.7-.5s-.2 0-.2.2 0 .3.1.4H.3a.8.8 0 0 1-.2-.5.6.6 0 0 1 .6-.6 1 1 0 0 1 .7.4l.2.2V36h.3ZM1.6 35.6v-.2a.4.4 0 0 0-.1-.3l-.3-.2a.4.4 0 0 1 .1.3.6.6 0 0 1-.5.6.7.7 0 0 1-.7-.7c0-.4.4-.6.8-.6a1.1 1.1 0 0 1 .8.3 1.1 1.1 0 0 1 .2.6v.2Zm-.9-.2a.3.3 0 0 0 .3-.3c0-.1 0-.2-.1-.2H.8c-.2 0-.4 0-.4.2a.3.3 0 0 0 .3.3ZM.5 33v.6h.3a.7.7 0 0 1 .1-.5.5.5 0 0 1 .4-.2.7.7 0 0 1 .6.7c0 .3 0 .4-.1.5h-.3a.6.6 0 0 0 .1-.4c0-.2-.1-.4-.3-.4s-.2.2-.2.5v.2H.2v-1ZM1.9 32.5h-.3l-.2-.2c-.3-.4-.5-.6-.7-.6s-.2.1-.2.3 0 .3.1.4H.3a.8.8 0 0 1-.2-.6.6.6 0 0 1 .6-.6c.3 0 .5.2.7.5h.2v-.6h.3ZM.5 30.4l.2.3-.3.1-.2-.5V30h1.7v.4H.5z" fill="#8a2b2b"/><path d="M148.6 21.6a1.3 1.3 0 1 0 0 2.6 1.3 1.3 0 1 0 0-2.6Zm0 2.4a1.1 1.1 0 1 1 0-2.2 1.1 1.1 0 1 1 0 2.2Z" fill="#832a29"/><path d="m149.2 23.2-.3-.3a.3.3 0 0 0 .3-.3c0-.1-.1-.2-.1-.3h-1v1.2h.3V23h.2l.2.2a.8.8 0 0 1 .1.3h.4c-.1 0-.1-.1-.1-.3Zm-.6-.4h-.2v-.3h.2c.2 0 .3.1.3.2s-.2.1-.3.1Z" fill="#832a29"/><path fill="#852a29" fill-rule="evenodd" d="m126.4 51-.4-5.1h1.4l.2 3.5 2.2-3.5h1.5l-3.4 5.1h-1.5zM121.8 45.4l1-1.7h1.3l-1.6 1.7h-.7zM119.5 48.4a3.8 3.8 0 0 1 .6-1.3 3.1 3.1 0 0 1 1.1-.9 2.8 2.8 0 0 1 1.3-.3 1.5 1.5 0 0 1 1.4.7 2.2 2.2 0 0 1 .1 1.8 4 4 0 0 1-1.1 1.9 2.8 2.8 0 0 1-1.9.7 1.7 1.7 0 0 1-1-.3 1.5 1.5 0 0 1-.6-.9 2.3 2.3 0 0 1 .1-1.4Zm1.2 0a1.7 1.7 0 0 0 0 1 .9.9 0 0 0 .6.3 1.3 1.3 0 0 0 .8-.3 3.1 3.1 0 0 0 .5-1 1.4 1.4 0 0 0 0-.9.5.5 0 0 0-.6-.4.9.9 0 0 0-.7.4 2 2 0 0 0-.6.9ZM111.5 46.1h1.2v.7a1.9 1.9 0 0 1 1.3-.8.8.8 0 0 1 .7.2 1.5 1.5 0 0 1 .4.6 1.3 1.3 0 0 1 .7-.6.8.8 0 0 1 .7-.2c.3 0 .6 0 .7.2a.7.7 0 0 1 .3.6c.1.3 0 .5-.1 1l-.8 3.2h-1.2l.6-2.3a5.1 5.1 0 0 0 .1-1c-.1-.2-.2-.3-.4-.3l-.5.2-.4.5a6.2 6.2 0 0 0-.3 1L114 51h-1.1l.6-2.2a4.6 4.6 0 0 0 .1-1 .4.4 0 0 0-.1-.3h-.3l-.6.2-.4.5a4.1 4.1 0 0 0-.3 1l-.5 1.9h-1.2l1.3-4.9ZM106.2 51l1.8-7h1.4l-1.8 7h-1.4zM137.9 51l1.3-5.1h1.4l-1.3 5.1h-1.4z"/><ellipse cx="140.3" cy="44.7" rx=".9" ry=".7" transform="rotate(-61.9 140.217 44.634)" fill="#852a29"/><path d="M144.4 48.1c-.2-.1-.9-.5-.8-.8s.3-.4.5-.3l.7.2.3.2.5-1a1.8 1.8 0 0 0-2.1-.4 1.7 1.7 0 0 0-1.2 1.5 1.3 1.3 0 0 0 .7 1.2c.2.1.9.6.8.9s-.6.2-.8.2l-.5-.2-.3-.2-.8.9a2.4 2.4 0 0 0 2.4.6 2 2 0 0 0 1.3-1.6c.1-.6-.2-.9-.7-1.2Z" fill="#852a29"/><path fill="#852a29" fill-rule="evenodd" d="m12.9 47.7 18.8-28.9H23L4.1 47.7h8.8z"/><path fill="#e13837" fill-rule="evenodd" d="m18.4 47.7 17.4-16.6 17.5 16.6H58L38.1 18.8h-5.3L13.9 47.7h4.5z"/><path fill="#852a29" fill-rule="evenodd" d="m36.9 47.7-6.5-10.4 5.4-5.2 16.5 15.6H36.9z"/></g><path d="m134.8 49.5.7.8a3.1 3.1 0 0 1-2.1.8c-.8-.1-1.4-.4-1.6-1a2.4 2.4 0 0 1 0-1.7 4.7 4.7 0 0 1 1.2-1.8 2.3 2.3 0 0 1 1.7-.7 1.4 1.4 0 0 1 1.4.7 3.7 3.7 0 0 1 .1 2.4H133c-.4 1.4 1.5 1.2 1.8.5Zm.2-1.7a.6.6 0 0 0 0-.6.5.5 0 0 0-.5-.3 1.3 1.3 0 0 0-1.1.9Z" fill="#852a29" fill-rule="evenodd"/></svg>